<svg width="800" height="1067" viewBox="0 0 800 1067" fill="none" xmlns="http://www.w3.org/2000/svg">
  <rect width="800" height="1067" fill="#F5F3EE"/>
  <circle cx="400" cy="480" r="260" fill="url(#glow3)" opacity="0.3"/>
  <!-- Bottle body - dark faceted -->
  <path d="M290 680 L290 320 L360 280 L440 280 L510 320 L510 680 Z" fill="#121218"/>
  <path d="M290 680 L290 320 L360 280 L440 280 L510 320 L510 680 Z" stroke="#2C2C3A" stroke-width="2"/>
  <!-- Facet lines -->
  <line x1="360" y1="280" x2="360" y2="680" stroke="#1E1E2C" stroke-width="1"/>
  <line x1="440" y1="280" x2="440" y2="680" stroke="#1E1E2C" stroke-width="1"/>
  <!-- Sparkle dots -->
  <circle cx="320" cy="400" r="2" fill="#C5A55A" opacity="0.6"/>
  <circle cx="380" cy="350" r="1.5" fill="#C5A55A" opacity="0.4"/>
  <circle cx="460" cy="420" r="2.5" fill="#C5A55A" opacity="0.5"/>
  <circle cx="340" cy="550" r="1.5" fill="#C5A55A" opacity="0.3"/>
  <circle cx="480" cy="500" r="2" fill="#C5A55A" opacity="0.45"/>
  <circle cx="420" cy="600" r="1.8" fill="#C5A55A" opacity="0.35"/>
  <!-- Cap -->
  <rect x="350" y="210" width="100" height="75" rx="4" fill="#1A1A24"/>
  <rect x="350" y="210" width="100" height="75" rx="4" stroke="#C5A55A" stroke-width="1"/>
  <!-- Glass reflection -->
  <rect x="300" y="330" width="15" height="300" rx="3" fill="white" opacity="0.05"/>
  <!-- Brand text -->
  <text x="400" y="480" text-anchor="middle" fill="white" font-size="28" font-family="Georgia, serif" letter-spacing="5" font-weight="700">BLACK</text>
  <text x="400" y="520" text-anchor="middle" fill="#C5A55A" font-size="22" font-family="Georgia, serif" letter-spacing="6">OPIUM</text>
  <!-- Bottom label -->
  <text x="400" y="920" text-anchor="middle" fill="#A89B7A" font-size="16" font-family="Arial, sans-serif" letter-spacing="2" font-weight="600">YVES SAINT LAURENT</text>
  <text x="400" y="950" text-anchor="middle" fill="#999" font-size="14" font-family="Arial, sans-serif">90ml · Eau de Parfum</text>
  <text x="400" y="1030" text-anchor="middle" fill="#C5A55A" font-size="24" font-family="Arial, sans-serif" font-weight="700">88 000 FCFA</text>
  <defs>
    <radialGradient id="glow3" cx="0.5" cy="0.5" r="0.5">
      <stop stop-color="#9B59B6" stop-opacity="0.1"/>
      <stop offset="1" stop-color="#F5F3EE" stop-opacity="0"/>
    </radialGradient>
  </defs>
</svg>