<svg width="800" height="1067" viewBox="0 0 800 1067" fill="none" xmlns="http://www.w3.org/2000/svg">
  <rect width="800" height="1067" fill="#F5F3EE"/>
  <circle cx="400" cy="480" r="250" fill="url(#glow4)" opacity="0.35"/>
  <!-- Tom Ford square bottle -->
  <rect x="280" y="300" width="240" height="380" rx="4" fill="#2C1810"/>
  <rect x="280" y="300" width="240" height="380" rx="4" stroke="#4A3020" stroke-width="2"/>
  <!-- Gold cap -->
  <rect x="340" y="230" width="120" height="80" rx="2" fill="#B8963E"/>
  <rect x="340" y="230" width="120" height="80" rx="2" stroke="#9B7B38" stroke-width="1.5"/>
  <!-- Cap highlight -->
  <rect x="350" y="240" width="30" height="60" rx="2" fill="#D4AF60" opacity="0.5"/>
  <!-- Neck -->
  <rect x="370" y="280" width="60" height="25" fill="#2C1810"/>
  <!-- Glass reflection -->
  <rect x="290" y="315" width="18" height="340" rx="3" fill="white" opacity="0.06"/>
  <!-- Label area -->
  <rect x="300" y="420" width="200" height="120" fill="#3A2218" opacity="0.8"/>
  <line x1="300" y1="420" x2="500" y2="420" stroke="#C5A55A" stroke-width="0.5"/>
  <line x1="300" y1="540" x2="500" y2="540" stroke="#C5A55A" stroke-width="0.5"/>
  <!-- Brand text -->
  <text x="400" y="465" text-anchor="middle" fill="#C5A55A" font-size="22" font-family="Georgia, serif" letter-spacing="6">TOM FORD</text>
  <text x="400" y="505" text-anchor="middle" fill="#D4C4A0" font-size="16" font-family="Georgia, serif" letter-spacing="3">OUD WOOD</text>
  <!-- Bottom label -->
  <text x="400" y="920" text-anchor="middle" fill="#A89B7A" font-size="16" font-family="Arial, sans-serif" letter-spacing="2" font-weight="600">TOM FORD</text>
  <text x="400" y="950" text-anchor="middle" fill="#999" font-size="14" font-family="Arial, sans-serif">100ml · Eau de Parfum</text>
  <text x="400" y="1030" text-anchor="middle" fill="#C5A55A" font-size="24" font-family="Arial, sans-serif" font-weight="700">185 000 FCFA</text>
  <defs>
    <radialGradient id="glow4" cx="0.5" cy="0.5" r="0.5">
      <stop stop-color="#C5A55A" stop-opacity="0.18"/>
      <stop offset="1" stop-color="#F5F3EE" stop-opacity="0"/>
    </radialGradient>
  </defs>
</svg>